<svg xmlns="http://www.w3.org/2000/svg" xmlns:xlink="http://www.w3.org/1999/xlink" viewBox="0 0 74.71 65"><defs><style>.cls-1,.cls-4{fill:#fff;}.cls-1{stroke:#000;}.cls-1,.cls-2,.cls-3{stroke-miterlimit:10;}.cls-2{fill:url(#linear-gradient);stroke:url(#linear-gradient-2);}.cls-3{fill:none;stroke:#fff;}.cls-4{font-size:4.83px;font-family:MyriadPro-Regular, Myriad Pro;}</style><linearGradient id="linear-gradient" x1="0.5" y1="32.5" x2="64.5" y2="32.5" gradientUnits="userSpaceOnUse"><stop offset="0" stop-color="#93278f"/><stop offset="0.07" stop-color="#8d288f"/><stop offset="0.37" stop-color="#782b90"/><stop offset="0.67" stop-color="#6a2c91"/><stop offset="0.94" stop-color="#662d91"/></linearGradient><linearGradient id="linear-gradient-2" x1="0" y1="32.5" x2="65" y2="32.5" xlink:href="#linear-gradient"/></defs><title>favicon_lifecounter</title><g id="Layer_1" data-name="Layer 1"><path class="cls-1" d="M11,10.52" transform="translate(0.5 0.5)"/></g><g id="Layer_2" data-name="Layer 2"><rect class="cls-2" x="0.5" y="0.5" width="64" height="64"/><g id="Layer_3" data-name="Layer 3"><g id="Layer_4" data-name="Layer 4"><path class="cls-3" d="M33.58,14" transform="translate(0.5 0.5)"/><path class="cls-3" d="M31.74,49.24c-2.1.84-3.78,1.72-5,.92a2.78,2.78,0,0,1-1.07-1.6c-1.59-5.09-2.63-9.18-3.29-12s-1.47-6.63-2.5-10.65c-.1-.38-.47-1.85-1-3.87-.42-1.68-.76-3.05-1-3.92a2.34,2.34,0,0,1,.63-1.59c.46-.44.75-.2,2.39-.58a27.18,27.18,0,0,1,3.18-.73l.24,0a53.06,53.06,0,0,0,6.56-1.27c3.65-1,5.16-2.12,6.41-1.26a2.76,2.76,0,0,1,1,1.74c.09.38.19.75.3,1.13" transform="translate(0.5 0.5)"/><path class="cls-3" d="M25.5,46.9c-1.87.77-3.38,1.46-4.53.72A2.75,2.75,0,0,1,19.9,46c-1.59-5.08-2.63-9.17-3.29-12s-1.47-6.63-2.5-10.64c-.1-.38-.47-1.85-1-3.87-.42-1.69-.76-3.06-1-3.92a2.37,2.37,0,0,1,.63-1.6c.46-.43.75-.2,2.39-.58a29.37,29.37,0,0,1,3.18-.73l.24,0a51.2,51.2,0,0,0,6.56-1.27c3.65-1,5.16-2.12,6.41-1.26a2.79,2.79,0,0,1,1,1.74l.27,1.05" transform="translate(0.5 0.5)"/><path class="cls-3" d="M32.85,12.91c0,.12.07.25.11.37" transform="translate(0.5 0.5)"/><text class="cls-4" transform="translate(45.81 47.32) rotate(-15.6) scale(1.17 1)">x/x</text><text x="0.5" y="0.5"/></g></g><path class="cls-3" d="M38.62,15.53c2.67-.86,3.93-1.59,5-.85a2.81,2.81,0,0,1,1,1.75c.9,3.73,2.54,7.24,3.58,10.93C49.7,32.59,53.53,41,54.66,44.49a2.3,2.3,0,0,1,0,1.69,2.36,2.36,0,0,1-1.55,1.07l-3,.77c-2.92.77-8.67,1.9-12,3.24-2.1.84-3.78,1.73-5,.92A2.74,2.74,0,0,1,32,50.59c-1.59-5.09-2.63-9.18-3.29-12S27.2,32,26.17,27.94c-.09-.38-.47-1.85-1-3.87-.42-1.69-.76-3.06-1-3.92a2.38,2.38,0,0,1,.63-1.6c.47-.43.76-.2,2.4-.57a26.51,26.51,0,0,1,3.17-.73l.24,0a53.25,53.25,0,0,0,6.56-1.28c.5-.13,1-.28,1.4-.41" transform="translate(0.5 0.5)"/></g></svg>